<svg xmlns="http://www.w3.org/2000/svg" viewBox="0 0 23.98 23.98"><defs><style>.cls-1{fill:#1891ff;}.cls-2{fill:#fff;}</style></defs><title>管理员@1920X1080</title><g id="图层_2" data-name="图层 2"><g id="图层_1-2" data-name="图层 1"><path class="cls-1" d="M0,12A12,12,0,1,0,12,0,12,12,0,0,0,0,12Zm0,0"/><path class="cls-2" d="M19,15.28A.21.21,0,0,1,19,15l.77-.92,0,0-.17-.43a3.5,3.5,0,0,0-.2-.44,2.3,2.3,0,0,0-.39-.59l-.2-.2-1.19.16a.22.22,0,0,1-.23-.14L17,11.32l-.3-.05a4.07,4.07,0,0,0-1.73,0l-.27.05-.42,1.12a.25.25,0,0,1-.22.14h0L13,12.41a3.74,3.74,0,1,0-3.66-.27,6.12,6.12,0,0,0-3.9,5.67.5.5,0,0,0,.49.53H6a.5.5,0,0,0,.5-.52,5.06,5.06,0,0,1,5-5h0a3.7,3.7,0,0,0,1.2-.26l-.09.09A3.78,3.78,0,0,0,12,13.84l-.11.27.79,1a.17.17,0,0,1,0,.2l-.83.93.1.25a2.83,2.83,0,0,0,.3.72,2.1,2.1,0,0,0,.39.55l.2.2L14,17.71a.18.18,0,0,1,.2.11L14.64,19l.3.06a4.35,4.35,0,0,0,.88.09,4.4,4.4,0,0,0,.88-.1L17,19l.42-1.16a.19.19,0,0,1,.19-.12l1.17.19h0l.21-.21a3.54,3.54,0,0,0,.68-1.21l.11-.27ZM11.44,6.33A2.7,2.7,0,1,1,8.94,8,2.71,2.71,0,0,1,11.44,6.33Zm1.85,10.46a1,1,0,0,1-.1-.17,2.41,2.41,0,0,1-.14-.25l.41-.48a1.23,1.23,0,0,0,0-1.55l-.4-.47a2.78,2.78,0,0,1,.24-.42l.59.09a1.23,1.23,0,0,0,1.36-.79l.22-.58a3,3,0,0,1,.72,0l.19.54a1.24,1.24,0,0,0,1.32.82l.63-.07a1.63,1.63,0,0,1,.12.2l.13.23-.41.48a1.23,1.23,0,0,0,0,1.54l.38.45a2.4,2.4,0,0,1-.23.42l-.59-.09a1.21,1.21,0,0,0-1.34.79l-.22.61a3.19,3.19,0,0,1-.75,0l-.19-.57A1.26,1.26,0,0,0,14,16.69Z"/><path class="cls-2" d="M17.38,15.15a1.54,1.54,0,1,0-1.54,1.54A1.55,1.55,0,0,0,17.38,15.15Zm-1,0h0a.5.5,0,1,1-.15-.36A.51.51,0,0,1,16.34,15.15Z"/></g></g></svg>