<svg xmlns="http://www.w3.org/2000/svg" viewBox="0 0 16 16"><defs><style>.cls-1{fill:#1890ff;}</style></defs><title>交易记录@1920X1080</title><g id="图层_2" data-name="图层 2"><g id="图层_1-2" data-name="图层 1"><path class="cls-1" d="M8,16a8,8,0,1,1,8-8A8,8,0,0,1,8,16ZM8,1.08A6.91,6.91,0,1,0,14.92,8,6.92,6.92,0,0,0,8,1.08Z"/><path class="cls-1" d="M6.08,11.8a.43.43,0,0,1-.35-.16l-1.81-2a.56.56,0,0,1,0-.44A.52.52,0,0,1,4.18,9L11.6,9a.55.55,0,0,1,.34.15.42.42,0,0,1,.15.34.55.55,0,0,1-.15.34.42.42,0,0,1-.34.15H5.54l.89.95a.53.53,0,0,1,0,.72A.42.42,0,0,1,6.08,11.8Z"/><path class="cls-1" d="M4.4,7a.55.55,0,0,1-.34-.15.42.42,0,0,1-.15-.34.56.56,0,0,1,.15-.34A.42.42,0,0,1,4.4,6h6.07l-.89-.95a.53.53,0,0,1,0-.72.42.42,0,0,1,.34-.15.43.43,0,0,1,.35.16l1.81,2a.48.48,0,0,1,.08.42.49.49,0,0,1-.3.24Z"/></g></g></svg>