<svg xmlns="http://www.w3.org/2000/svg" viewBox="0 0 21 19.13"><defs><style>.cls-1{fill:#fff;}</style></defs><title>资产管理@1920X1080</title><g id="图层_2" data-name="图层 2"><g id="图层_1-2" data-name="图层 1"><path class="cls-1" d="M10.71,3.87a.5.5,0,0,0-.33-.12.51.51,0,0,0-.33.12L1.6,11.17a.5.5,0,0,0-.17.38v5.86a1.72,1.72,0,0,0,1.72,1.72H17.52a1.72,1.72,0,0,0,1.72-1.72V11.55a.5.5,0,0,0-.17-.38Zm7.54,13.54a.71.71,0,0,1-.72.72H3.15a.72.72,0,0,1-.72-.72V11.78l7.94-6.87,7.87,6.87Z"/><path class="cls-1" d="M20.85,9,10.71.12a.5.5,0,0,0-.66,0L.16,8.69a.5.5,0,0,0,.35.87.49.49,0,0,0,.3-.1l9.57-8.28,9.81,8.56a.5.5,0,0,0,.69-.06A.51.51,0,0,0,20.85,9Z"/><path class="cls-1" d="M12.75,13.56H10.82V13h1.93a.48.48,0,1,0,0-1H11.19l1.37-2a.48.48,0,1,0-.79-.55l-1.4,2L9,9.56a.48.48,0,1,0-.79.55l1.37,2H7.92a.48.48,0,1,0,0,1H9.85v.52H7.92a.48.48,0,1,0,0,1H9.85v1.38a.48.48,0,1,0,1,0V14.53h1.93a.48.48,0,1,0,0-1Z"/></g></g></svg>