<svg xmlns="http://www.w3.org/2000/svg" viewBox="0 0 14.95 13.4"><defs><style>.cls-1{fill:#1890ff;}</style></defs><title>时间@1920X1080</title><g id="图层_2" data-name="图层 2"><g id="图层_1-2" data-name="图层 1"><path class="cls-1" d="M4.23,4.64H3.3a.51.51,0,1,0,0,1h.93a.51.51,0,1,0,0-1Z"/><path class="cls-1" d="M4.23,7.12H3.3a.51.51,0,0,0,0,1h.93a.51.51,0,1,0,0-1Z"/><path class="cls-1" d="M4.23,9.59H3.3a.51.51,0,0,0,0,1h.93a.51.51,0,0,0,0-1Z"/><path class="cls-1" d="M7.94,4.64H7a.51.51,0,1,0,0,1h.91a.51.51,0,1,0,0-1Z"/><path class="cls-1" d="M7.94,7.12H7a.51.51,0,1,0,0,1h.91a.51.51,0,1,0,0-1Z"/><path class="cls-1" d="M7.94,9.59H7a.51.51,0,0,0,0,1h.91a.51.51,0,0,0,0-1Z"/><path class="cls-1" d="M11.66,4.64h-.93a.51.51,0,1,0,0,1h.93a.51.51,0,1,0,0-1Z"/><path class="cls-1" d="M11.66,7.12h-.93a.51.51,0,1,0,0,1h.93a.51.51,0,1,0,0-1Z"/><path class="cls-1" d="M14.24,1.78A2.38,2.38,0,0,0,12.42.93H11.24V.51a.51.51,0,1,0-1,0V.93H4.74V.51a.51.51,0,0,0-1,0V.93H2.83A2.84,2.84,0,0,0,0,3.77v6.8A2.84,2.84,0,0,0,2.83,13.4h9.55a2.57,2.57,0,0,0,2.57-2.57V3.73A3,3,0,0,0,14.24,1.78ZM12.4,12.39H2.83A1.82,1.82,0,0,1,1,10.57V3.73A1.78,1.78,0,0,1,2.79,1.94h.93v.72a.51.51,0,0,0,1,0V1.94h5.49v.72a.51.51,0,0,0,1,0V1.94h1.18A1.53,1.53,0,0,1,14,3.48v7.36A1.56,1.56,0,0,1,12.4,12.39Z"/></g></g></svg>