<svg xmlns="http://www.w3.org/2000/svg" viewBox="0 0 20 20"><defs><style>.cls-1{fill:#fff;}</style></defs><title>费用设置@1920X1080</title><g id="图层_2" data-name="图层 2"><g id="图层_1-2" data-name="图层 1"><path class="cls-1" d="M10,20A10,10,0,1,1,14.19.92c.15.07.3.13.44.21a.5.5,0,0,1,.27.3.5.5,0,0,1,0,.4.5.5,0,0,1-.7.23l-.4-.2A8.75,8.75,0,0,0,10,1a9,9,0,1,0,9,9c0-.09,0-.4,0-.47a.53.53,0,0,1,.13-.38A.5.5,0,0,1,19.44,9h0a.51.51,0,0,1,.54.49c0,.09,0,.44,0,.53A10,10,0,0,1,10,20Z"/><path class="cls-1" d="M10.12,16.42a.52.52,0,0,1-.52-.52V12.7h-4a.52.52,0,0,1-.52-.52.52.52,0,0,1,.52-.52h4V8.3h-4a.52.52,0,0,1-.52-.52.52.52,0,0,1,.52-.52H8L7.08,5.21a.54.54,0,0,1,0-.4.49.49,0,0,1,.27-.28.54.54,0,0,1,.21,0A.51.51,0,0,1,8,4.79L9,7.06l.07.21h2.45L11.61,7l1-2.26a.51.51,0,0,1,.47-.31.54.54,0,0,1,.21,0,.49.49,0,0,1,.27.28.54.54,0,0,1,0,.4l-.91,2.06h2a.52.52,0,0,1,.52.52.52.52,0,0,1-.52.52h-4v3.37h4a.52.52,0,0,1,.52.52.52.52,0,0,1-.52.52h-4v3.2A.52.52,0,0,1,10.12,16.42ZM19,7.66a.57.57,0,1,1,.57-.57A.57.57,0,0,1,19,7.66ZM18,5.47a.57.57,0,1,1,.57-.57A.57.57,0,0,1,18,5.47ZM16.42,3.58A.57.57,0,1,1,17,3,.57.57,0,0,1,16.42,3.58Z"/></g></g></svg>