<svg xmlns="http://www.w3.org/2000/svg" viewBox="0 0 18 18"><defs><style>.cls-1{fill:#666;}</style></defs><title>退出@1920X1080</title><g id="图层_2" data-name="图层 2"><g id="图层_1-2" data-name="图层 1"><path class="cls-1" d="M9,18a8.93,8.93,0,0,1-3.5-.7A9,9,0,0,1,0,9,9.13,9.13,0,0,1,.71,5.5,9,9,0,0,1,2.64,2.64a.53.53,0,1,1,.75.75A7.93,7.93,0,0,0,14.6,14.61a7.95,7.95,0,0,0,0-11.22.53.53,0,1,1,.75-.75A9,9,0,0,1,17.3,12.5a9,9,0,0,1-1.93,2.86A8.94,8.94,0,0,1,9,18ZM9,9.54A.54.54,0,0,1,8.46,9V.54A.53.53,0,0,1,9,0a.54.54,0,0,1,.54.54V9A.54.54,0,0,1,9,9.54Z"/></g></g></svg>