<svg xmlns="http://www.w3.org/2000/svg" viewBox="0 0 18 18"><defs><style>.cls-1{fill:#fff;}</style></defs><title>订单管理@1920X1080</title><g id="图层_2" data-name="图层 2"><g id="图层_1-2" data-name="图层 1"><path class="cls-1" d="M13.9,2.8H1.3A1.3,1.3,0,0,0,0,4.1V16.71A1.29,1.29,0,0,0,1.3,18H13.9a1.29,1.29,0,0,0,1.3-1.29V4.1A1.3,1.3,0,0,0,13.9,2.8ZM14,4l0,12.79-12.78,0V4Z"/><path class="cls-1" d="M11.1,12.61h-7a.6.6,0,0,0,0,1.19h7a.6.6,0,1,0,0-1.19Z"/><path class="cls-1" d="M11.1,9.8h-7A.6.6,0,0,0,4.1,11h7a.6.6,0,1,0,0-1.19Z"/><path class="cls-1" d="M4.1,8.19h7a.55.55,0,0,0,.6-.59.55.55,0,0,0-.6-.6h-7a.55.55,0,0,0-.59.6A.55.55,0,0,0,4.1,8.19Z"/><path class="cls-1" d="M16,0H4.8A.55.55,0,0,0,4.2.59a.55.55,0,0,0,.59.59H16a.76.76,0,0,1,.81.81V13.2a.59.59,0,1,0,1.19,0V2A2,2,0,0,0,16,0Z"/></g></g></svg>