<svg xmlns="http://www.w3.org/2000/svg" viewBox="0 0 14 14"><defs><style>.cls-1{fill:#1890ff;}</style></defs><title>搜索@1920X1080</title><g id="图层_2" data-name="图层 2"><g id="图层_1-2" data-name="图层 1"><path class="cls-1" d="M13.85,13.15,11,10.33l.12-.16a6.33,6.33,0,0,0,1.4-3.91,6.28,6.28,0,1,0-6.28,6.28,5.94,5.94,0,0,0,3.9-1.38l.16-.14,2.81,2.81a.47.47,0,0,0,.7,0A.48.48,0,0,0,14,13.5.49.49,0,0,0,13.85,13.15Zm-2.3-6.88a5.22,5.22,0,0,1-5.27,5.28A5.23,5.23,0,0,1,1,6.27,5.22,5.22,0,0,1,6.28,1,5.22,5.22,0,0,1,11.55,6.27Z"/></g></g></svg>