<svg xmlns="http://www.w3.org/2000/svg" viewBox="0 0 23.98 23.98"><defs><style>.cls-1{fill:#1891ff;}.cls-2{fill:#fff;}</style></defs><title>供应商@1920X1080</title><g id="图层_2" data-name="图层 2"><g id="图层_1-2" data-name="图层 1"><path class="cls-1" d="M12,15.95"/><path class="cls-1" d="M0,12A12,12,0,1,0,12,0,12,12,0,0,0,0,12Zm0,0"/><path class="cls-2" d="M16.16,5.73V18.25H7.82V5.73h8.34m0-1H7.82a1,1,0,0,0-1,1V18.25a1,1,0,0,0,1,1h8.34a1,1,0,0,0,1-1V5.73a1,1,0,0,0-1-1Zm0,0"/><path class="cls-2" d="M18.25,18.77c0,.29-.35.52-.78.52H6.52c-.43,0-.78-.23-.78-.52s.35-.52.78-.52H17.46c.43,0,.78.23.78.52ZM10.95,7.44h-1A.52.52,0,0,0,9.38,8V9a.52.52,0,0,0,.52.52h1A.52.52,0,0,0,11.47,9V8a.52.52,0,0,0-.52-.52Zm3.13,0H13a.52.52,0,0,0-.52.52V9a.52.52,0,0,0,.52.52h1A.52.52,0,0,0,14.6,9V8a.52.52,0,0,0-.52-.52Zm-3.13,3.13h-1a.52.52,0,0,0-.52.52v1a.52.52,0,0,0,.52.52h1a.52.52,0,0,0,.52-.52v-1a.52.52,0,0,0-.52-.52Zm3.13,0H13a.52.52,0,0,0-.52.52v1a.52.52,0,0,0,.52.52h1a.52.52,0,0,0,.52-.52v-1a.52.52,0,0,0-.52-.52Zm0,0"/><path class="cls-2" d="M13.48,14.89a.52.52,0,0,1,.08.29v2.66a.53.53,0,0,1-.08.29h-3a.52.52,0,0,1-.08-.29V15.18a.53.53,0,0,1,.08-.29h3m.08-1H10.43a1.21,1.21,0,0,0-1,1.33v2.66a1.21,1.21,0,0,0,1,1.33h3.13a1.21,1.21,0,0,0,1-1.33V15.18a1.21,1.21,0,0,0-1-1.33Zm0,0"/></g></g></svg>