<svg xmlns="http://www.w3.org/2000/svg" viewBox="0 0 24 24.03"><defs><style>.cls-1{fill:#1891ff;}.cls-2{fill:none;}.cls-3{fill:#fff;}</style></defs><title>用户@1920X1080</title><g id="图层_2" data-name="图层 2"><g id="图层_1-2" data-name="图层 1"><path class="cls-1" d="M0,12A12,12,0,1,0,12,0,12,12,0,0,0,0,12Zm0,0"/><rect class="cls-2" width="24" height="24.03"/><path class="cls-3" d="M6,19.4a.54.54,0,0,1-.54-.52v-.38a6.27,6.27,0,0,1,4.12-5.9l.12,0-.1-.07A4.26,4.26,0,0,1,7.61,8.93a4.38,4.38,0,0,1,8.76,0,4.24,4.24,0,0,1-1.94,3.57l-.1.07.12,0a6.48,6.48,0,0,1,4.15,6v.29a.54.54,0,0,1-1.08,0,5,5,0,0,0,0-.52A5.44,5.44,0,0,0,12,13.23a5.44,5.44,0,0,0-5.5,5.13,4.05,4.05,0,0,0,0,.49v.08A.56.56,0,0,1,6,19.4ZM12,5.68a3.27,3.27,0,0,0-3.3,3.24,3.31,3.31,0,0,0,6.62,0A3.28,3.28,0,0,0,12,5.68Zm0,0"/></g></g></svg>