<svg xmlns="http://www.w3.org/2000/svg" viewBox="0 0 20.79 17"><defs><style>.cls-1{fill:#fff;}</style></defs><title>用户管理@1920X1080</title><g id="图层_2" data-name="图层 2"><g id="图层_1-2" data-name="图层 1"><path class="cls-1" d="M5.09,8l0-.12V7.7a.19.19,0,0,0,0-.1l0,0,0,0,0-.06a.27.27,0,0,0-.16-.11A2.53,2.53,0,0,1,5.24,2.6.49.49,0,0,0,5.62,2a.51.51,0,0,0-.5-.4L5,1.6l0,.09L5,1.61A3.55,3.55,0,0,0,3.22,7.45l.21.24-.29.15A5.81,5.81,0,0,0,0,13v1.17a.51.51,0,0,0,.5.51h0a.51.51,0,0,0,.5-.51V13A4.91,4.91,0,0,1,4.68,8.3.51.51,0,0,0,5.09,8Z"/><path class="cls-1" d="M13.11,8.15,12.7,8,13,7.71a4.28,4.28,0,0,0,1.66-3.39,4.32,4.32,0,1,0-8.63,0A4.28,4.28,0,0,0,7.74,7.71L8.09,8l-.41.17A7.32,7.32,0,0,0,3,15v1.52a.51.51,0,0,0,.51.51H17.24a.51.51,0,0,0,.51-.51V15A7.32,7.32,0,0,0,13.11,8.15ZM4.06,16V15a6.34,6.34,0,0,1,12.67,0v1ZM10.4,7.6a3.29,3.29,0,1,1,3.29-3.29A3.29,3.29,0,0,1,10.4,7.6Z"/><path class="cls-1" d="M17.65,7.84l-.27-.14.22-.2a3.55,3.55,0,0,0-1.68-5.81.26.26,0,0,0-.15,0,.5.5,0,0,0-.5.38.52.52,0,0,0,0,.39.5.5,0,0,0,.31.24A2.52,2.52,0,0,1,16,7.4a.45.45,0,0,0-.18.13.66.66,0,0,0-.1.17l0,0V7.9l0,.08v.09a.54.54,0,0,0,.43.3A4.82,4.82,0,0,1,19.78,13v1.17a.51.51,0,0,0,.5.51h0a.51.51,0,0,0,.51-.53V13A5.82,5.82,0,0,0,17.65,7.84Z"/></g></g></svg>