<svg xmlns="http://www.w3.org/2000/svg" viewBox="0 0 18 17.99"><defs><style>.cls-1{fill:#0f9aef;}</style></defs><title>提币@1920X1080</title><g id="图层_2" data-name="图层 2"><g id="图层_1-2" data-name="图层 1"><path class="cls-1" d="M17.36,5.65h0a1.1,1.1,0,0,0-2,.82A6.81,6.81,0,1,1,9,2.18a6.55,6.55,0,0,1,1.36.14,1.06,1.06,0,0,0,.83-.16A1.09,1.09,0,0,0,11.5.65a1.08,1.08,0,0,0-.69-.46,9,9,0,1,0,6.55,5.46Z"/><path class="cls-1" d="M12.55,4.06H16a1.09,1.09,0,0,0,0-2.18H12.55a1.09,1.09,0,0,0,0,2.18Z"/><path class="cls-1" d="M12.36,10.25a1.1,1.1,0,0,0-1.1-.95H10.21L11.79,7v0a1.17,1.17,0,0,0,.14-.54v-.1a1.09,1.09,0,0,0-.85-.91l-.13,0-.13,0a1.28,1.28,0,0,0-.93.56L8.81,7.52,7.7,5.85a1.39,1.39,0,0,0-.87-.5l-.13,0-.13,0a1,1,0,0,0-.88,1A1.22,1.22,0,0,0,5.85,7,.89.89,0,0,0,6,7.24L7.38,9.3h-1a1,1,0,0,0-1,1,1,1,0,0,0,1.11,1H7.7v1.3a1,1,0,0,0,1.11,1.07,1.07,1.07,0,0,0,1.11-1.07v-1.3h1.34a1,1,0,0,0,1.1-.91v-.18Z"/><line class="cls-1" x1="6.27" y1="7.64" x2="6.96" y2="8.67"/></g></g></svg>